<svg xmlns="http://www.w3.org/2000/svg" width="28" height="28" preserveAspectRatio="none" viewBox="0 0 24 24"><path fill="white" d="M18.362 8.572c.207 4.617-3.235 9.764-9.33 9.764A9.291 9.291 0 014 16.861a6.6 6.6 0 004.86-1.36 3.285 3.285 0 01-3.066-2.279c.514.099 1.02.07 1.482-.055-1.58-.318-2.669-1.74-2.633-3.26.442.245.949.393 1.487.41a3.286 3.286 0 01-1.016-4.383 9.318 9.318 0 006.766 3.43c-.479-2.054 1.079-4.03 3.197-4.03.945 0 1.798.398 2.396 1.036a6.565 6.565 0 002.085-.797 3.289 3.289 0 01-1.443 1.816A6.556 6.556 0 0020 6.872a6.664 6.664 0 01-1.638 1.7"></path></svg>